PathFileType	4	(X/Y/Z)	E:\MAC3D_DATA\2020_06_02_vinay\TPose1.trc																																																																
DataRate	CameraRate	NumFrames	NumMarkers	Units	OrigDataRate	OrigDataStartFrame	OrigNumFrames																																																												
1000	200	15	22	mm	200	412	822																																																												
Frame#	Time	RAsis			LAsis			RPsi			LPsi			RThigh1			RThigh2			RThigh3			RKneeOut			RKneeIn			LThigh1			LThigh2			LThigh3			LKneeOut			LKneeIn			MidAsis			MidPsi			MidPelvis			RHJC			LHJC			MidHJC			RKJC			LKJC		
		X1	Y1	Z1	X2	Y2	Z2	X3	Y3	Z3	X4	Y4	Z4	X5	Y5	Z5	X6	Y6	Z6	X7	Y7	Z7	X8	Y8	Z8	X9	Y9	Z9	X10	Y10	Z10	X11	Y11	Z11	X12	Y12	Z12	X13	Y13	Z13	X14	Y14	Z14	X15	Y15	Z15	X16	Y16	Z16	X17	Y17	Z17	X18	Y18	Z18	X19	Y19	Z19	X20	Y20	Z20	X21	Y21	Z21	X22	Y22	Z22
																																																																			
412	2.055	33.4992	972.79	227.337	38.4882	972.741	-15.7114	-161.97	1020.11	153.634	-161.839	1020.75	70.8489	-67.2301	742.13	299.283	-153.897	642.319	270.341	-39.2049	660.311	277.364	-113.652	507.524	278.135	-97.3749	492.848	162.728	-16.0681	654.259	-60.8293	-56.8219	747.588	-93.7059	-112.461	650.422	-81.7281	-91.2853	504.463	-70.5486	-90.736	492.116	44.264	35.99	972.77	105.81	-161.90	1020.43	112.24	-62.96	996.60	109.03	-47.42	904.05	208.66	-46.28	914.27	2.69	-46.85	909.16	105.68	-105.51	500.19	220.43	-91.01	498.29	-13.14
413	2.06	33.5071	972.787	227.336	38.5006	972.738	-15.7141	-161.958	1020.11	153.63	-161.829	1020.75	70.8448	-67.226	742.132	299.281	-153.893	642.32	270.338	-39.2017	660.309	277.359	-113.651	507.525	278.133	-97.3723	492.845	162.726	-16.0591	654.257	-60.8297	-56.8133	747.587	-93.7081	-112.453	650.421	-81.7306	-91.2807	504.464	-70.5495	-90.734	492.116	44.2581	36.00	972.76	105.81	-161.89	1020.43	112.24	-62.94	996.60	109.02	-47.41	904.05	208.66	-46.27	914.27	2.69	-46.84	909.16	105.67	-105.51	500.19	220.43	-91.01	498.29	-13.15
414	2.065	33.5146	972.783	227.336	38.5133	972.734	-15.7157	-161.946	1020.11	153.627	-161.819	1020.75	70.8414	-67.2227	742.134	299.278	-153.889	642.32	270.335	-39.199	660.307	277.355	-113.651	507.524	278.131	-97.3694	492.843	162.724	-16.0499	654.254	-60.8296	-56.8047	747.587	-93.7099	-112.445	650.42	-81.7325	-91.276	504.464	-70.5498	-90.7316	492.115	44.2534	36.01	972.76	105.81	-161.88	1020.43	112.23	-62.93	996.59	109.02	-47.40	904.05	208.66	-46.26	914.27	2.69	-46.83	909.16	105.67	-105.51	500.18	220.43	-91.00	498.29	-13.15
415	2.07	33.5217	972.78	227.337	38.5264	972.731	-15.7161	-161.935	1020.1	153.625	-161.808	1020.75	70.8387	-67.2202	742.135	299.276	-153.886	642.32	270.332	-39.1967	660.305	277.352	-113.651	507.524	278.13	-97.3664	492.841	162.723	-16.0405	654.252	-60.829	-56.7959	747.587	-93.7113	-112.436	650.419	-81.7337	-91.2713	504.465	-70.5495	-90.729	492.115	44.2502	36.02	972.76	105.81	-161.87	1020.42	112.23	-62.92	996.59	109.02	-47.40	904.04	208.66	-46.25	914.26	2.68	-46.82	909.15	105.67	-105.51	500.18	220.43	-91.00	498.29	-13.15
416	2.075	33.5286	972.777	227.34	38.5399	972.727	-15.7152	-161.923	1020.1	153.624	-161.797	1020.75	70.8366	-67.2186	742.136	299.273	-153.883	642.32	270.33	-39.195	660.303	277.349	-113.652	507.524	278.129	-97.3635	492.839	162.722	-16.0309	654.25	-60.8277	-56.7869	747.586	-93.7123	-112.428	650.419	-81.7342	-91.2667	504.465	-70.5485	-90.7261	492.114	44.2481	36.03	972.75	105.81	-161.86	1020.42	112.23	-62.91	996.59	109.02	-47.39	904.04	208.66	-46.23	914.26	2.69	-46.81	909.15	105.67	-105.51	500.18	220.43	-91.00	498.29	-13.15
417	2.08	33.5351	972.774	227.344	38.554	972.724	-15.713	-161.911	1020.1	153.623	-161.786	1020.75	70.835	-67.2178	742.136	299.27	-153.881	642.321	270.328	-39.1939	660.302	277.347	-113.653	507.524	278.129	-97.3607	492.837	162.722	-16.0212	654.247	-60.8256	-56.7778	747.587	-93.7129	-112.419	650.418	-81.7341	-91.262	504.465	-70.547	-90.7233	492.113	44.247	36.04	972.75	105.82	-161.85	1020.42	112.23	-62.90	996.59	109.02	-47.38	904.04	208.66	-46.22	914.26	2.69	-46.80	909.15	105.67	-105.51	500.18	220.43	-90.99	498.29	-13.15
418	2.085	33.5414	972.772	227.349	38.5685	972.72	-15.7095	-161.9	1020.1	153.622	-161.774	1020.75	70.8339	-67.2179	742.136	299.268	-153.879	642.321	270.327	-39.1934	660.301	277.346	-113.655	507.524	278.129	-97.3584	492.836	162.722	-16.0114	654.245	-60.8226	-56.7685	747.587	-93.7131	-112.41	650.418	-81.7334	-91.2574	504.465	-70.5449	-90.7207	492.112	44.2465	36.05	972.75	105.82	-161.84	1020.42	112.23	-62.89	996.59	109.02	-47.38	904.04	208.66	-46.21	914.26	2.69	-46.79	909.15	105.67	-105.51	500.18	220.43	-90.99	498.29	-13.15
419	2.09	33.5474	972.769	227.355	38.5835	972.716	-15.7048	-161.888	1020.1	153.623	-161.762	1020.75	70.8333	-67.2187	742.136	299.265	-153.878	642.322	270.327	-39.1936	660.3	277.346	-113.657	507.525	278.13	-97.3566	492.834	162.724	-16.0015	654.243	-60.8186	-56.759	747.587	-93.7129	-112.401	650.417	-81.7321	-91.2528	504.465	-70.5421	-90.7184	492.111	44.2466	36.07	972.74	105.83	-161.82	1020.42	112.23	-62.88	996.58	109.03	-47.37	904.04	208.66	-46.20	914.26	2.69	-46.78	909.15	105.68	-105.51	500.18	220.43	-90.99	498.29	-13.15
420	2.095	33.5533	972.767	227.362	38.5989	972.712	-15.6987	-161.877	1020.1	153.623	-161.75	1020.75	70.833	-67.2202	742.135	299.262	-153.878	642.323	270.327	-39.1943	660.299	277.347	-113.66	507.525	278.132	-97.3554	492.833	162.726	-15.9915	654.241	-60.8136	-56.7494	747.587	-93.712	-112.392	650.417	-81.7302	-91.2484	504.464	-70.5388	-90.7164	492.11	44.2472	36.08	972.74	105.83	-161.81	1020.42	112.23	-62.87	996.58	109.03	-47.37	904.04	208.67	-46.18	914.25	2.70	-46.77	909.14	105.68	-105.51	500.18	220.43	-90.98	498.29	-13.15
421	2.1	33.559	972.764	227.37	38.6147	972.708	-15.6913	-161.865	1020.11	153.624	-161.737	1020.75	70.833	-67.2223	742.133	299.259	-153.878	642.324	270.328	-39.1955	660.298	277.349	-113.664	507.525	278.134	-97.3547	492.832	162.728	-15.9815	654.238	-60.8077	-56.7396	747.588	-93.7105	-112.384	650.417	-81.7277	-91.2443	504.462	-70.535	-90.7147	492.109	44.2487	36.09	972.74	105.84	-161.80	1020.43	112.23	-62.86	996.58	109.03	-47.36	904.04	208.67	-46.17	914.25	2.70	-46.77	909.14	105.69	-105.51	500.18	220.43	-90.98	498.29	-13.14
422	2.105	33.5646	972.762	227.379	38.6307	972.704	-15.6827	-161.854	1020.11	153.624	-161.724	1020.75	70.8334	-67.2248	742.131	299.257	-153.88	642.326	270.33	-39.1974	660.297	277.352	-113.668	507.526	278.136	-97.3545	492.831	162.732	-15.9713	654.236	-60.801	-56.7296	747.588	-93.7083	-112.375	650.417	-81.7246	-91.2403	504.46	-70.5305	-90.7129	492.108	44.2511	36.10	972.73	105.85	-161.79	1020.43	112.23	-62.85	996.58	109.04	-47.36	904.03	208.68	-46.16	914.25	2.71	-46.76	909.14	105.69	-105.51	500.18	220.43	-90.98	498.28	-13.14
423	2.11	33.57	972.76	227.388	38.6469	972.699	-15.673	-161.843	1020.11	153.625	-161.711	1020.76	70.8341	-67.2275	742.129	299.255	-153.882	642.327	270.333	-39.1997	660.297	277.355	-113.673	507.526	278.139	-97.3547	492.831	162.735	-15.961	654.234	-60.7935	-56.7193	747.588	-93.7053	-112.367	650.418	-81.721	-91.2367	504.458	-70.5256	-90.7111	492.108	44.255	36.11	972.73	105.86	-161.78	1020.43	112.23	-62.83	996.58	109.04	-47.35	904.04	208.68	-46.14	914.25	2.71	-46.75	909.14	105.70	-105.51	500.18	220.44	-90.97	498.28	-13.14
424	2.115	33.5754	972.757	227.398	38.6631	972.695	-15.6625	-161.833	1020.11	153.626	-161.699	1020.76	70.8351	-67.2304	742.127	299.253	-153.885	642.329	270.336	-39.2025	660.296	277.36	-113.678	507.527	278.142	-97.3552	492.831	162.739	-15.9506	654.232	-60.7851	-56.709	747.587	-93.7016	-112.358	650.418	-81.7169	-91.2333	504.455	-70.5202	-90.7092	492.107	44.2602	36.12	972.73	105.87	-161.77	1020.43	112.23	-62.82	996.58	109.05	-47.35	904.04	208.69	-46.13	914.25	2.72	-46.74	909.14	105.71	-105.52	500.18	220.44	-90.97	498.28	-13.13
425	2.12	33.5807	972.755	227.408	38.6793	972.689	-15.6513	-161.822	1020.11	153.627	-161.685	1020.76	70.8363	-67.233	742.124	299.253	-153.888	642.33	270.34	-39.2056	660.296	277.365	-113.684	507.528	278.145	-97.356	492.832	162.744	-15.9403	654.229	-60.7758	-56.6984	747.587	-93.6972	-112.35	650.418	-81.7122	-91.2301	504.452	-70.5145	-90.7069	492.106	44.2671	36.13	972.72	105.88	-161.75	1020.43	112.23	-62.81	996.58	109.06	-47.34	904.04	208.70	-46.11	914.24	2.73	-46.73	909.14	105.71	-105.52	500.18	220.44	-90.97	498.28	-13.12
426	2.125	33.5859	972.753	227.419	38.6954	972.684	-15.6397	-161.811	1020.12	153.628	-161.672	1020.76	70.838	-67.2354	742.122	299.254	-153.892	642.332	270.344	-39.2091	660.296	277.371	-113.69	507.528	278.148	-97.3572	492.833	162.748	-15.93	654.227	-60.7656	-56.6878	747.586	-93.6922	-112.342	650.419	-81.7072	-91.2271	504.45	-70.5084	-90.7041	492.105	44.2759	36.14	972.72	105.89	-161.74	1020.44	112.23	-62.80	996.58	109.06	-47.34	904.04	208.71	-46.10	914.24	2.74	-46.72	909.14	105.72	-105.52	500.18	220.45	-90.97	498.28	-13.12
